<svg width="10" height="8" viewBox="0 0 10 8" fill="none" xmlns="http://www.w3.org/2000/svg">
<path d="M9.20704 0.793C9.39451 0.980528 9.49983 1.23484 9.49983 1.5C9.49983 1.76516 9.39451 2.01947 9.20704 2.207L4.20704 7.207C4.01951 7.39447 3.76521 7.49979 3.50004 7.49979C3.23488 7.49979 2.98057 7.39447 2.79304 7.207L0.793041 5.207C0.610883 5.0184 0.510088 4.7658 0.512367 4.5036C0.514645 4.2414 0.619814 3.99059 0.805222 3.80518C0.990631 3.61977 1.24144 3.5146 1.50364 3.51233C1.76584 3.51005 2.01844 3.61084 2.20704 3.793L3.50004 5.086L7.79304 0.793C7.98057 0.605529 8.23488 0.500214 8.50004 0.500214C8.76521 0.500214 9.01951 0.605529 9.20704 0.793Z" fill="white"/>
</svg>
